<svg version="1" xmlns="http://www.w3.org/2000/svg" width="326.667" height="326.667" viewBox="0 0 245.000000 245.000000"><path d="M15.6 38.6c-.9 2.4-.7 161.7.2 163.2.7.9 5.1 1.2 18.8 1l17.9-.3v-18l-8-.5-8-.5v-127l8-.5 8-.5v-18l-18.1-.3c-15.9-.2-18.2 0-18.8 1.4zM194 46.4v9.5l7.8.3 7.7.3v127l-7.7.3-7.8.3V203l18.3-.2 18.2-.3v-165l-18.2-.3L194 37v9.4zM80.5 59.2c-.3.7-.4 28.3-.3 61.3l.3 60 12.3.3 12.2.3v-25.3c0-13.9.4-25.9.8-26.6.6-.9 3.8-1.2 12.2-1l11.3.3 10.1 26 10.2 26 13.2.3c10.2.2 13.2 0 13.2-1 0-.7-4.7-13.4-10.5-28.3-5.8-14.8-10.5-27.4-10.4-28 0-.5 2.2-2.7 5-4.8 9.3-7.1 14.7-18.3 13.5-28.2-2-17-13.5-28.6-31.3-31.5-9.1-1.5-61.3-1.3-61.8.2zm61.8 22.1c4.7 3.6 5.9 5.9 5.9 11.7 0 5.8-1.2 8.1-5.9 11.7-3.6 2.8-3.9 2.8-19.6 3.1-12.4.3-16.2 0-16.8-1-1-1.5-1.2-24.8-.3-27.3.6-1.4 2.6-1.6 16.9-1.3 15.9.3 16.2.3 19.8 3.1z"/></svg>